<?xml version="1.0"?>
<svg xmlns="http://www.w3.org/2000/svg" viewBox="0 0 128 128"><style>path{fill:#8A7868;}</style><g><path d="M56.609,13.5H87.594a1.75,1.75,0,0,0,0-3.5H56.609a1.75,1.75,0,0,0,0,3.5Z"/><path d="M56.609,22.85H87.594a1.75,1.75,0,0,0,0-3.5H56.609a1.75,1.75,0,0,0,0,3.5Z"/><path d="M56.609,32.2H87.594a1.75,1.75,0,1,0,0-3.5H56.609a1.75,1.75,0,0,0,0,3.5Z"/><path d="M30.6,41.55H87.594a1.75,1.75,0,0,0,0-3.5H30.6a1.75,1.75,0,0,0,0,3.5Z"/><path d="M30.6,50.9H87.594a1.75,1.75,0,0,0,0-3.5H30.6a1.75,1.75,0,0,0,0,3.5Z"/><path d="M30.6,60.249H87.594a1.75,1.75,0,0,0,0-3.5H30.6a1.75,1.75,0,1,0,0,3.5Z"/><path d="M89.344,67.849a1.75,1.75,0,0,0-1.75-1.75H30.6a1.75,1.75,0,0,0,0,3.5H87.594A1.751,1.751,0,0,0,89.344,67.849Z"/><path d="M105.983,117.657a9.2,9.2,0,0,0,1.933-11.527l-3.767-6.525a1.75,1.75,0,0,0-3.031,1.75l3.767,6.525a5.7,5.7,0,0,1-.7,6.653l-3.391-5.873v0h0L97.9,103.648A6.666,6.666,0,0,0,99.343,99.5V6.75A6.758,6.758,0,0,0,92.593,0H46.6a1.766,1.766,0,0,0-1.238.513l-26,26a1.845,1.845,0,0,0-.512,1.237V99.5a6.757,6.757,0,0,0,6.75,6.75H85.4l4.889,8.468v0h0l6.3,10.9a4.753,4.753,0,0,0,6.488,1.738l2.274-1.312a4.749,4.749,0,0,0,1.738-6.488Zm-18.06-14.031h0L79.741,89.454l2.219-1.281,2.219-1.281,12.7,22-4.439,2.562Zm-9.916-22.3,3.71,2.946-1.507.87-1.506.87ZM34.839,15.987,44.852,5.975V22.75A3.254,3.254,0,0,1,41.6,26H24.827ZM83.376,102.75H25.6a3.254,3.254,0,0,1-3.25-3.25v-70H41.6a6.758,6.758,0,0,0,6.75-6.75V3.5H92.593a3.254,3.254,0,0,1,3.25,3.25V99.5a3.089,3.089,0,0,1-.043.519L86.335,83.626a2.214,2.214,0,0,0-.46-.522l-9.162-7.275a1.816,1.816,0,0,0-2.072-.077l-4.618,3.137L68.475,76.3a1.75,1.75,0,0,0-1.5-.852h0a1.75,1.75,0,0,0-1.5.847l-1.4,2.322-1.165-4.207a1.75,1.75,0,0,0-2.632-1.006L51.9,78.78a1.75,1.75,0,0,0,1.891,2.946l6.376-4.093,1.617,5.84a1.748,1.748,0,0,0,1.449,1.266,1.6,1.6,0,0,0,.238.017,1.749,1.749,0,0,0,1.5-.847l2-3.31,1,1.677a1.748,1.748,0,0,0,2.485.549L74.3,80.212l1.31,8.817a2.419,2.419,0,0,0,.222.66Zm20.8,19.511a1.245,1.245,0,0,1-.582.759l-2.273,1.312a1.252,1.252,0,0,1-1.708-.457l-5.421-9.389,4.439-2.562,5.42,9.389A1.242,1.242,0,0,1,104.177,122.261Z"/></g></svg>
