<?xml version="1.0"?>
<svg xmlns="http://www.w3.org/2000/svg"  viewBox="0 0 128 128"><style>path{fill:#8A7868;}</style><g><path d="M122.363,4.69a1.747,1.747,0,0,0-1.907.379L5.069,120.456a1.749,1.749,0,0,0,1.238,2.987H121.693a1.749,1.749,0,0,0,1.75-1.75V6.307A1.75,1.75,0,0,0,122.363,4.69ZM109.635,119.943V116.7a1.75,1.75,0,0,0-3.5,0v3.246h-3V113.2a1.75,1.75,0,1,0-3.5,0v6.739h-3V116.7a1.75,1.75,0,0,0-3.5,0v3.246H84.711V116.7a1.75,1.75,0,0,0-3.5,0v3.246h-3V113.2a1.75,1.75,0,0,0-3.5,0v6.739h-3V116.7a1.75,1.75,0,0,0-3.5,0v3.246H59.787V116.7a1.75,1.75,0,0,0-3.5,0v3.246h-3V113.2a1.75,1.75,0,0,0-3.5,0v6.739h-3V116.7a1.75,1.75,0,0,0-3.5,0v3.246H34.864V116.7a1.75,1.75,0,0,0-3.5,0v3.246h-3V113.2a1.75,1.75,0,1,0-3.5,0v6.739h-3V116.7a1.75,1.75,0,0,0-3.5,0v3.246H10.531L119.943,10.532v7.833H116.7a1.75,1.75,0,0,0,0,3.5h3.246v3H113.2a1.75,1.75,0,0,0,0,3.5h6.74v3H116.7a1.75,1.75,0,0,0,0,3.5h3.246v8.425H116.7a1.75,1.75,0,0,0,0,3.5h3.246v3H113.2a1.75,1.75,0,0,0,0,3.5h6.74v3H116.7a1.75,1.75,0,0,0,0,3.5h3.246v8.424H116.7a1.75,1.75,0,0,0,0,3.5h3.246v3H113.2a1.75,1.75,0,0,0,0,3.5h6.74v3H116.7a1.75,1.75,0,0,0,0,3.5h3.246v8.425H116.7a1.75,1.75,0,0,0,0,3.5h3.246v3H113.2a1.75,1.75,0,0,0,0,3.5h6.74v3H116.7a1.75,1.75,0,0,0,0,3.5h3.246v10.308Z"/><path d="M104.949,46.747a1.747,1.747,0,0,0-1.907.379L47.126,103.042a1.749,1.749,0,0,0,1.237,2.987h55.916a1.75,1.75,0,0,0,1.75-1.75V48.363A1.748,1.748,0,0,0,104.949,46.747Zm-2.42,55.782H52.588l49.941-49.941Z"/></g></svg>
