<svg id="Layer_1"  viewBox="0 0 128 128" xmlns="http://www.w3.org/2000/svg" data-name="Layer 1"><style>path{fill:#8A7868;}</style><path d="m110.089 69.923h-.523v-18.492-17.931a1.75 1.75 0 0 0 -1.75-1.75h-22.73v-16.25a1.75 1.75 0 0 0 -1.75-1.75h-40.946a1.75 1.75 0 0 0 -1.75 1.75v16.255h-13.766a10.725 10.725 0 0 0 -10.713 10.713c0 .092.012.182.014.273 0 .046-.014.091-.014.138v69.621a1.75 1.75 0 0 0 1.75 1.75h89.9a1.75 1.75 0 0 0 1.75-1.75v-18.7h.523a1.75 1.75 0 0 0 1.75-1.75v-20.377a1.75 1.75 0 0 0 -1.745-1.75zm-16.566 20.377a8.437 8.437 0 1 1 0-16.874h14.815v16.874zm12.542-55.042v14.423h-20.979v-14.426zm-61.926-18h37.447v32.423h-4.322v-19.29a1.75 1.75 0 0 0 -1.75-1.75 2.469 2.469 0 0 1 -2.467-2.467 1.75 1.75 0 0 0 -1.75-1.75h-16.867a1.75 1.75 0 0 0 -1.75 1.75 2.469 2.469 0 0 1 -2.467 2.467 1.75 1.75 0 0 0 -1.75 1.75v19.29h-4.323zm29.625 27.134a16.684 16.684 0 0 0 -10.9-3.764 16.684 16.684 0 0 0 -10.9 3.764v-12.513a5.99 5.99 0 0 0 3.955-3.955h13.89a5.99 5.99 0 0 0 3.955 3.955zm-10.9-.264c5.01 0 9.349 2.407 10.556 5.552h-21.113c1.207-3.144 5.546-5.551 10.556-5.551zm-35.99-8.873h13.766v14.426h-13.766a7.213 7.213 0 1 1 0-14.426zm79.191 75.5h-86.4v-60.39a10.658 10.658 0 0 0 7.213 2.815h79.191v16.743h-12.546a11.937 11.937 0 1 0 0 23.874h12.542z"/><path d="m93.72 77.723a4.137 4.137 0 1 0 4.137 4.138 4.143 4.143 0 0 0 -4.137-4.138z"/></svg>
