<svg xmlns="http://www.w3.org/2000/svg" width="128.687" height="36.5" viewBox="0 0 128.687 36.5">
  <defs>
    <style>
      .cls-1 {
        fill: #fff;
        fill-rule: evenodd;
      }
    </style>
  </defs>
  <path id="LOGO_копия" data-name="LOGO копия" class="cls-1" d="M101.505,5803.89v-32.93H99.352v34.83h22.02v-1.9H101.505Zm25.469-28.7q-4.575,5.055-4.575,13.18,0,8.22,4.526,13.24a15.353,15.353,0,0,0,11.964,5.02,15.649,15.649,0,0,0,12.037-4.97q4.6-4.965,4.6-13.04,0-8.22-4.624-13.36A16.572,16.572,0,0,0,126.974,5775.19Zm22.362,1.39q4.036,4.6,4.037,11.94,0,7.245-4.013,11.74a13.342,13.342,0,0,1-10.471,4.51,13.107,13.107,0,0,1-10.373-4.55q-3.964-4.56-3.964-11.94a19.5,19.5,0,0,1,1.615-8,14.158,14.158,0,0,1,4.942-5.97A14.159,14.159,0,0,1,149.336,5776.58Zm26.447,12.19v1.76h12.869v0.58a13.643,13.643,0,0,1-3.621,9.91,12.72,12.72,0,0,1-9.59,3.75,13.323,13.323,0,0,1-10.447-4.41q-3.939-4.395-3.939-11.59,0-7.545,3.914-12.11a14.044,14.044,0,0,1,18.545-1.96,11.456,11.456,0,0,1,4.4,7.07h2.006a12.578,12.578,0,0,0-4.893-8.37,15.3,15.3,0,0,0-9.639-3.18,15.118,15.118,0,0,0-11.891,5.14q-4.55,5.13-4.55,13.41,0,7.92,4.55,12.87a15.426,15.426,0,0,0,11.891,4.94,14.765,14.765,0,0,0,8.294-2.43,12.229,12.229,0,0,0,5.064-6.82l-0.049,2.25,0.294,6.21h1.517v-17.02H175.783Zm23.707-13.58q-4.575,5.055-4.575,13.18,0,8.22,4.526,13.24a15.353,15.353,0,0,0,11.964,5.02,15.647,15.647,0,0,0,12.037-4.97q4.6-4.965,4.6-13.04,0-8.22-4.624-13.36A16.572,16.572,0,0,0,199.49,5775.19Zm22.362,1.39q4.037,4.6,4.037,11.94,0,7.245-4.013,11.74a13.342,13.342,0,0,1-10.471,4.51,13.107,13.107,0,0,1-10.373-4.55q-3.965-4.56-3.964-11.94a19.5,19.5,0,0,1,1.615-8,14.158,14.158,0,0,1,4.942-5.97A14.159,14.159,0,0,1,221.852,5776.58Z" transform="translate(-99.344 -5770.13)"/>
</svg>
