<svg xmlns="http://www.w3.org/2000/svg" width="1717.592" height="160.68" viewBox="0 0 1717.592 160.68">
  <defs>
    <style>
      .cls-1 {
        fill: #fff;
        fill-opacity: 0;
        stroke: #c1bcb6;
        stroke-linejoin: round;
        stroke-width: 1px;
        fill-rule: evenodd;
        opacity: 0.17;
      }
    </style>
  </defs>
  <path id="Калькулятор" class="cls-1" d="M192.836,2130.77L132.9,2194.14v-63.37H99.931v152.42H132.9v-49.24l19.48-19.26,46.239,68.5h41.958l-65.291-92.27,59.725-60.15H192.836Zm113.24-.21-58.013,152.63h34.251l12.416-34.04h56.728l11.988,34.04h35.108l-58.013-152.63H306.076Zm-3.211,94.19,20.336-56.73,20.123,56.73H302.865Zm138.716-93.98-2.569,92.69q-0.642,21.42-4.924,28.58t-12.2,7.17a25.88,25.88,0,0,1-11.774-2.57v26.98a60.144,60.144,0,0,0,18.838,2.57q40.243,0,42.385-62.3l2.141-64.65h40.887v123.95h33.395V2130.77H441.581Zm253.668,67.11q-14.986-12.3-39.174-12.31H620.111v-54.8H586.93v152.42h67.432q25.689,0,40.78-12.31t15.092-36.71Q710.234,2210.185,695.249,2197.88Zm-43.456,57.91H620.111V2211.9h31.468q26.115,0,26.117,21.84,0,22.05-25.9,22.05h0Zm182.385-125.02-59.939,63.37v-63.37H741.272v152.42h32.967v-49.24l19.48-19.26,46.239,68.5h41.958l-65.291-92.27,59.725-60.15H834.178Zm97.613,155.2q17.982,0,28.9-9.52t21.835-33.51l51.375-112.17H998.152l-33.823,80.28-34.465-80.28H892.83l44.741,94.19c0.284,0.57.889,1.79,1.819,3.64s1.606,3.25,2.034,4.18,0.926,2.17,1.5,3.74a35.743,35.743,0,0,1,1.285,4.28,17.864,17.864,0,0,1,.428,3.86,12.153,12.153,0,0,1-4.067,9.31q-4.069,3.75-11.346,3.74a41.194,41.194,0,0,1-16.055-3.42v28.26a49.738,49.738,0,0,0,18.624,3.42h0Zm137.009-155.2-2.57,92.69q-0.645,21.42-4.93,28.58t-12.2,7.17a25.866,25.866,0,0,1-11.77-2.57v26.98a60.135,60.135,0,0,0,18.84,2.57q40.23,0,42.38-62.3l2.14-64.65h40.89v123.95h33.39V2130.77H1068.8Zm238.04,92.69v59.73h33.18V2130.77h-74.71q-22.695,0-37.57,11.77-14.88,11.79-14.88,34.9,0,17.55,9.53,28.79t25.36,15.31l-47.31,61.65h41.96l44.53-59.73h19.91Zm-31.69-24.19q-13.9,0-21.72-4.39t-7.82-17.23q0-11.985,7.6-16.27t20.45-4.28h33.18v42.17h-31.69Zm92.69-68.5v28.47h45.81v123.95h33.61V2159.24h45.81v-28.47H1367.84Zm163.66,18.3q-20.655,21.945-20.66,58.12,0,35.76,20.77,57.7t54.58,21.94q33.615,0,54.27-21.94t20.66-57.7q0-35.745-20.66-57.9t-54.05-22.16Q1552.15,2127.13,1531.5,2149.07Zm84.66,19.48q11.13,14.025,11.14,38,0,24.4-10.92,38.53t-29.97,14.13q-19.485-.21-30.61-14.13-11.145-13.9-11.14-38.53,0-23.76,11.24-37.89t30.08-14.13Q1605.03,2154.53,1616.16,2168.55Zm78.78,114.64h33.18v-54.8h34.25q24.2,0,39.18-12.31t14.98-36.29q0-24.4-15.09-36.71t-40.78-12.31h-65.72v152.42Zm63.15-125.02q25.9,0,25.9,22.05,0,21.84-26.11,21.84h-29.76v-43.89h29.97Z" transform="translate(-99.438 -2126.63)"/>
</svg>
