<svg xmlns="http://www.w3.org/2000/svg" width="1504.561" height="141.94" viewBox="0 0 1504.561 141.94">
  <defs>
    <style>
      .cls-1 {
        fill: #fff;
        fill-opacity: 0;
        stroke: #fff;
        stroke-linejoin: round;
        stroke-width: 1px;
        fill-rule: evenodd;
        opacity: 0.17;
      }
    </style>
  </defs>
  <path id="наших_работ" data-name="наших работ" class="cls-1" d="M184.171,4178.55v50.64H129.19v-50.64H99.716v134.52H129.19v-58h54.981v58h29.475V4178.55H184.171Zm101.46-.19-51.2,134.71h30.23l10.958-30.04h50.069l10.58,30.04h30.986l-51.2-134.71H285.631Zm-2.834,83.13,17.949-50.06,17.76,50.06H282.8Zm282.84,51.58V4178.55H536.163v109.4H491.385v-109.4H461.91v109.4H417.132v-109.4H387.657v134.52h177.98Zm115.63-134.52-50.636,93.15h-0.566v-93.15H600.59v134.52h33.253l50.636-93.33h0.567v93.33H714.52V4178.55H681.267Zm146.238,0-27.018,43.27-26.83-43.27H739.271l43.833,64.24-47.423,70.28h33.631l29.852-46.66,29.474,46.66H863.97l-47.235-70.28L860,4178.55h-32.5Zm120.163,134.52h29.286v-48.36h30.226q21.36,0,34.58-10.87t13.23-32.02q0-21.54-13.32-32.41t-36-10.86h-58v134.52Zm55.742-110.34q22.845,0,22.86,19.47,0,19.26-23.05,19.27H976.954v-38.74h26.456Zm102.02-24.37-51.2,134.71h30.23l10.96-30.04h50.07l10.58,30.04h30.98l-51.2-134.71h-30.42Zm-2.83,83.13,17.95-50.06,17.76,50.06H1102.6Zm134.9-58.57h70.47v-24.37h-99.76v134.52h62.92q22.68,0,35.99-10.86t13.32-32.4q0-21.165-13.22-32.03t-34.58-10.86H1237.5v-24Zm31.36,85.97H1237.5v-38.73h31.17q23.055,0,23.06,19.27,0,19.455-22.87,19.46h0Zm93.81-94.19q-18.24,19.38-18.23,51.3,0,31.56,18.33,50.92t48.17,19.37q29.67,0,47.9-19.37t18.23-50.92q0-31.545-18.23-51.11-18.24-19.545-47.71-19.55Q1380.905,4175.34,1362.67,4194.7Zm74.73,17.2q9.81,12.375,9.82,33.53,0,21.54-9.64,34.01t-26.45,12.47q-17.19-.18-27.02-12.47-9.825-12.27-9.82-34.01,0-20.97,9.92-33.44t26.55-12.47Q1427.56,4199.52,1437.4,4211.9Zm55.36-33.35v25.13h40.43v109.39h29.66V4203.68h40.44v-25.13H1492.76Z" transform="translate(-99.219 -4174.84)"/>
</svg>
