<svg xmlns="http://www.w3.org/2000/svg" width="421.187" height="512.376" viewBox="0 0 421.187 512.376">
  <defs>
    <style>
      .cls-1 {
        fill: #22242b;
        fill-opacity: 0;
        stroke: #000;
        stroke-linejoin: round;
        stroke-width: 1px;
        fill-rule: evenodd;
        opacity: 0.21;
      }
    </style>
  </defs>
  <path id="Ка_та_лог" data-name="Ка та лог" class="cls-1" d="M167.279,987.039l-54.675,57.8v-57.8H82.532V1126.07H112.6v-44.91l17.769-17.58,42.178,62.49h38.272l-59.556-84.16,54.479-54.871H167.279Zm103.293-.195L217.655,1126.07H248.9l11.326-31.05h51.746l10.935,31.05h32.024L302.01,986.844H270.572Zm-2.929,85.916,18.551-51.74,18.355,51.74H267.643ZM71.207,1171.45v25.97h41.787v113.06h30.657V1197.42h41.787v-25.97H71.207Zm163.244-.19-52.917,139.22h31.242l11.326-31.04h51.746l10.935,31.04h32.024l-52.918-139.22H234.451Zm-2.929,85.91,18.55-51.74,18.356,51.74H231.522Zm-131.611,98.7-2.343,84.55q-0.586,19.515-4.491,26.06t-11.13,6.55a23.727,23.727,0,0,1-10.74-2.35v24.61a54.868,54.868,0,0,0,17.184,2.34q36.709,0,38.662-56.82l1.953-58.97h37.3V1494.9h30.462V1355.87H99.911Zm145.765,16.69q-18.847,20.025-18.844,53.02,0,32.61,18.941,52.62t49.793,20.02q30.654,0,49.5-20.02t18.843-52.62q0-32.61-18.843-52.82t-49.305-20.21Q264.517,1352.55,245.676,1372.56Zm77.228,17.77q10.15,12.8,10.154,34.66,0,22.26-9.959,35.15t-27.337,12.89q-17.772-.195-27.924-12.89t-10.154-35.15q0-21.675,10.252-34.56t27.435-12.89Q312.749,1377.54,322.9,1390.33Zm71.663-34.46V1494.9h30.462V1381.84H491.42v-25.97H394.567Z" transform="translate(-70.719 -986.344)"/>
</svg>
