<svg xmlns="http://www.w3.org/2000/svg" width="1762.661" height="173.32" viewBox="0 0 1762.661 173.32">
  <defs>
    <style>
      .cls-1 {
        fill: #fff;
        fill-opacity: 0;
        stroke: #000;
        stroke-linejoin: round;
        stroke-width: 1px;
        fill-rule: evenodd;
        opacity: 0.17;
      }
    </style>
  </defs>
  <path id="преимущества" class="cls-1" d="M87.716,3215.55v134.52H117.19V3240.68h54.981v109.39h29.475V3215.55H87.716Zm149.639,134.52H266.64v-48.36h30.23q21.35,0,34.576-10.87t13.226-32.02q0-21.54-13.32-32.41t-35.993-10.86h-58v134.52Zm55.737-110.34q22.859,0,22.861,19.47,0,19.26-23.05,19.27H266.64v-38.74h26.452Zm79.541-24.18v134.52H474.849v-24.75h-72.93v-33.06h65.75v-23.24h-65.75v-29.29h71.607v-24.18H372.633Zm212.555,0-50.635,93.15h-0.567v-93.15H504.511v134.52h33.254l50.635-93.33h0.567v93.33h29.474V3215.55H585.188Zm96.925,134.52v-94.65l33.442,94.65h22.862l33.064-95.6v95.6h27.774V3215.55H758.066l-30.608,92.39-31.364-92.39H653.961v134.52h28.152Zm175.334,2.46q15.872,0,25.507-8.41t19.272-29.57l45.345-99H916.018l-29.852,70.85-30.419-70.85H823.061l39.488,83.13c0.251,0.51.785,1.58,1.606,3.22s1.417,2.86,1.8,3.68,0.817,1.92,1.322,3.31a31.142,31.142,0,0,1,1.134,3.77,15.774,15.774,0,0,1,.378,3.41,10.709,10.709,0,0,1-3.59,8.21q-3.591,3.315-10.014,3.31a36.4,36.4,0,0,1-14.17-3.02v24.94a43.943,43.943,0,0,0,16.437,3.02h0Zm305.323-27.58h-14.93v-109.4h-29.47v109.4h-44.78v-109.4h-29.47v109.4H999.339v-109.4H969.864v134.52H1134.24v34.58h28.53v-59.7Zm23.24-109.4v134.52h102.21v-24.75h-72.93v-33.06h65.76v-23.24h-65.76v-29.29h71.61v-24.18H1186.01Zm222.76,82.57q-3.78,30.225-30.8,30.23-16.26,0-25.89-12.38t-9.63-33.16a67.655,67.655,0,0,1,3.4-21.91,36.825,36.825,0,0,1,11.81-16.91q8.4-6.9,20.69-6.9,11.895,0,19.74,6.14t10.11,17.29h28.91a48.618,48.618,0,0,0-17.95-34.58q-16.26-13.605-40.25-13.6-30.03,0-48.08,20.03t-18.04,50.25q0,31.935,17.85,51.3t47.14,19.37q27.015,0,42.51-14.93t17.76-40.24h-29.28Zm44.59-82.57v25.13h40.43v109.39h29.66V3240.68h40.44v-25.13H1453.36Zm135.28,134.52h67.26q19.83,0,32.68-10.48t12.85-29.57q0-25.89-24.56-32.88a30.822,30.822,0,0,0,13.41-11.05,29.131,29.131,0,0,0,4.92-16.72q0-17.01-12-25.41t-30.89-8.41h-63.67v134.52Zm55.54-111.66q10.215,0,16.25,3.31t6.05,12.56q0,15.69-22.3,15.68h-26.83v-31.55h26.83Zm1.33,51.58q12.27,0,19.36,3.69t7.09,14.64q0,10.77-6.71,14.55t-18.23,3.78h-29.67v-36.66h28.16Zm122.24-74.63-51.2,134.71h30.23l10.95-30.04h50.07l10.58,30.04h30.99l-51.2-134.71h-30.42Zm-2.84,83.13,17.95-50.06,17.76,50.06h-35.71Z" transform="translate(-87.219 -3211.84)"/>
</svg>
