<?xml version="1.0" encoding="UTF-8"?>
<!DOCTYPE svg PUBLIC "-//W3C//DTD SVG 1.1//EN" "http://www.w3.org/Graphics/SVG/1.1/DTD/svg11.dtd">
<!-- Creator: CorelDRAW 2020 (64-Bit) -->
<svg xmlns="http://www.w3.org/2000/svg" xml:space="preserve" width="27.5013mm" height="18.5872mm" version="1.1" style="shape-rendering:geometricPrecision; text-rendering:geometricPrecision; image-rendering:optimizeQuality; fill-rule:evenodd; clip-rule:evenodd"
viewBox="0 0 18.71 12.65"
 xmlns:xlink="http://www.w3.org/1999/xlink"
 xmlns:xodm="http://www.corel.com/coreldraw/odm/2003">
 <defs>
  <style type="text/css">
   <![CDATA[
    .fil0 {fill:black}
   ]]>
  </style>
 </defs>
 <g id="Слой_x0020_1">
  <metadata id="CorelCorpID_0Corel-Layer"/>
  <path class="fil0" d="M13.35 5.57c-0.83,-0.68 -1.91,-1.02 -3.25,-1.02l-7.34 0 0 -4.55 -2.75 0 0 12.65 9.96 0c1.42,0 2.55,-0.34 3.38,-1.02 0.83,-0.68 1.25,-1.7 1.25,-3.05 0,-1.33 -0.41,-2.33 -1.24,-3.01zm2.59 -5.57l0 12.65 2.77 0 0 -12.65 -2.77 0zm-6.22 6.73c1.44,0 2.17,0.6 2.17,1.81 0,1.22 -0.72,1.83 -2.15,1.83l-6.99 0 0 -3.64 6.97 0z"/>
 </g>
</svg>
