<?xml version="1.0" encoding="UTF-8"?>
<!DOCTYPE svg PUBLIC "-//W3C//DTD SVG 1.1//EN" "http://www.w3.org/Graphics/SVG/1.1/DTD/svg11.dtd">
<!-- Creator: CorelDRAW 2020 (64-Bit) -->
<svg xmlns="http://www.w3.org/2000/svg" xml:space="preserve" width="31.5196mm" height="19.4958mm" version="1.1" style="shape-rendering:geometricPrecision; text-rendering:geometricPrecision; image-rendering:optimizeQuality; fill-rule:evenodd; clip-rule:evenodd"
viewBox="0 0 24.58 15.21"
 xmlns:xlink="http://www.w3.org/1999/xlink"
 xmlns:xodm="http://www.corel.com/coreldraw/odm/2003">
 <defs>
  <style type="text/css">
   <![CDATA[
    .fil0 {fill:#fff}
   ]]>
  </style>
 </defs>
 <g id="Слой_x0020_1">
  <metadata id="CorelCorpID_0Corel-Layer"/>
  <path class="fil0" d="M22.62 2.11c-1.31,-1.41 -3.03,-2.11 -5.15,-2.11l-10.27 0c-2.17,0 -3.92,0.7 -5.23,2.09 -1.31,1.39 -1.97,3.24 -1.97,5.53 0,2.27 0.66,4.1 1.98,5.49 1.32,1.39 3.05,2.09 5.2,2.09l10.3 -0c2.12,0 3.84,-0.7 5.15,-2.09 1.31,-1.39 1.97,-3.22 1.97,-5.49 0,-2.27 -0.66,-4.11 -1.97,-5.51zm-15.42 0.5l10.27 0c1.19,0 2.13,0.45 2.83,1.33 0.71,0.89 1.06,2.1 1.06,3.62 0,1.55 -0.35,2.77 -1.04,3.67 -0.69,0.9 -1.64,1.35 -2.85,1.35l-10.27 0c-1.24,0 -2.21,-0.46 -2.91,-1.35 -0.71,-0.88 -1.06,-2.11 -1.06,-3.67 0,-1.51 0.36,-2.71 1.07,-3.61 0.74,-0.93 1.72,-1.35 2.9,-1.35z"/>
 </g>
</svg>
