<?xml version="1.0" encoding="UTF-8"?>
<!DOCTYPE svg PUBLIC "-//W3C//DTD SVG 1.1//EN" "http://www.w3.org/Graphics/SVG/1.1/DTD/svg11.dtd">
<!-- Creator: CorelDRAW 2020 (64-Bit) -->
<svg xmlns="http://www.w3.org/2000/svg" xml:space="preserve" width="27.3267mm" height="19.4959mm" version="1.1" style="shape-rendering:geometricPrecision; text-rendering:geometricPrecision; image-rendering:optimizeQuality; fill-rule:evenodd; clip-rule:evenodd"
viewBox="0 0 18.05 12.88"
 xmlns:xlink="http://www.w3.org/1999/xlink"
 xmlns:xodm="http://www.corel.com/coreldraw/odm/2003">
 <defs>
  <style type="text/css">
   <![CDATA[
    .fil0 {fill:black}
   ]]>
  </style>
 </defs>
 <g id="Слой_x0020_1">
  <metadata id="CorelCorpID_0Corel-Layer"/>
  <path class="fil0" d="M3.59 9.47c-0.59,-0.75 -0.88,-1.76 -0.88,-3.03 0,-0.73 0.1,-1.39 0.31,-2 0.21,-0.61 0.57,-1.12 1.08,-1.54 0.56,-0.46 1.21,-0.63 1.93,-0.63l6.6 0c0.63,0 1.27,0.17 1.77,0.56 0.48,0.37 0.79,0.9 0.92,1.58l2.64 0c-0.1,-1.28 -0.65,-2.33 -1.64,-3.16 -0.99,-0.83 -2.22,-1.24 -3.68,-1.24l-6.61 0c-1.83,0 -3.29,0.61 -4.39,1.83 -1.1,1.22 -1.65,2.75 -1.65,4.59 0,1.94 0.54,3.51 1.63,4.69 1.09,1.18 2.52,1.77 4.31,1.77l6.71 -0c1.6,-0 2.86,-0.47 3.78,-1.36 0.94,-0.91 1.48,-2.13 1.62,-3.68l-2.68 0c-0.23,1.81 -1.14,2.76 -2.73,2.76l-6.69 0c-0.99,0 -1.78,-0.38 -2.36,-1.13z"/>
 </g>
</svg>
