<?xml version="1.0" encoding="UTF-8"?>
<!DOCTYPE svg PUBLIC "-//W3C//DTD SVG 1.1//EN" "http://www.w3.org/Graphics/SVG/1.1/DTD/svg11.dtd">
<!-- Creator: CorelDRAW 2020 (64-Bit) -->
<svg xmlns="http://www.w3.org/2000/svg" xml:space="preserve" width="58.6353mm" height="74.5932mm" version="1.1" style="shape-rendering:geometricPrecision; text-rendering:geometricPrecision; image-rendering:optimizeQuality; fill-rule:evenodd; clip-rule:evenodd"
viewBox="0 0 85.86 109.23"
 xmlns:xlink="http://www.w3.org/1999/xlink"
 xmlns:xodm="http://www.corel.com/coreldraw/odm/2003">
 <defs>
  <style type="text/css">
   <![CDATA[
    .fil0 {fill:black;fill-rule:nonzero}
   ]]>
  </style>
 </defs>
 <g id="Слой_x0020_1">
  <metadata id="CorelCorpID_0Corel-Layer"/>
  <path class="fil0" d="M26.34 0.65l-10.67 10.74 11.66 16.48 -7.49 0 -8.26 -12.23 -3.48 3.44 0 8.79 -5.89 0 0 -27.22 5.89 0 0 11.32 10.7 -11.32 7.53 0zm17.03 -0.65c3.98,0 7.19,1.32 9.65,3.96 2.46,2.64 3.69,6.08 3.69,10.34 0,4.26 -1.23,7.69 -3.69,10.3 -2.46,2.61 -5.69,3.92 -9.69,3.92 -4.03,0 -7.28,-1.31 -9.75,-3.92 -2.47,-2.61 -3.71,-6.05 -3.71,-10.3 0,-4.31 1.23,-7.77 3.69,-10.38 2.46,-2.61 5.73,-3.92 9.81,-3.92zm-0.08 4.89c-2.24,0 -4.03,0.84 -5.37,2.52 -1.34,1.68 -2.01,3.94 -2.01,6.77 0,2.93 0.66,5.22 1.99,6.88 1.33,1.66 3.15,2.5 5.47,2.52 2.27,0 4.05,-0.84 5.35,-2.52 1.3,-1.68 1.95,-3.98 1.95,-6.88 0,-2.85 -0.66,-5.12 -1.99,-6.79 -1.33,-1.67 -3.12,-2.5 -5.39,-2.5zm42.57 -4.24l0 27.22 -5.96 0 0 -11.74 -11.12 0 0 11.74 -5.96 0 0 -27.22 5.96 0 0 10.24 11.12 0 0 -10.24 5.96 0zm-63.5 40.68l0 5.08 -8.18 0 0 22.13 -6 0 0 -22.13 -8.18 0 0 -5.08 22.36 0zm15.85 -0.04l10.36 27.26 -6.27 0 -2.14 -6.08 -10.13 0 -2.22 6.08 -6.12 0 10.36 -27.26 6.15 0zm0.5 16.82l-3.59 -10.13 -3.63 10.13 7.22 0zm38.36 -16.78l-10.67 10.74 11.66 16.48 -7.49 0 -8.26 -12.23 -3.48 3.44 0 8.79 -5.89 0 0 -27.22 5.89 0 0 11.32 10.7 -11.32 7.53 0zm-54.71 40.68l0 5.08 -8.18 0 0 22.13 -6 0 0 -22.13 -8.18 0 0 -5.08 22.36 0zm36.54 18.46c0,2.91 -0.9,5.09 -2.69,6.56 -1.8,1.47 -4.22,2.2 -7.28,2.2l-21.42 0 0 -27.22 5.93 0 0 9.79 15.81 0c2.88,0 5.21,0.73 7,2.2 1.78,1.47 2.68,3.63 2.68,6.48zm-5.81 -0.08c0,-2.6 -1.55,-3.9 -4.66,-3.9l-15 0 0 7.84 15.04 0c3.08,0 4.63,-1.31 4.63,-3.94zm8.72 -18.39l5.96 0 0 27.22 -5.96 0 0 -27.22z"/>
 </g>
</svg>
